<?xml version="1.0" encoding="UTF-8"?>
<svg id="Layer_1" xmlns="http://www.w3.org/2000/svg" version="1.1" xmlns:xlink="http://www.w3.org/1999/xlink" viewBox="0 0 887.53 305">
  <!-- Generator: Adobe Illustrator 30.0.0, SVG Export Plug-In . SVG Version: 2.1.1 Build 123)  -->
  <defs>
    <style>
      .st0 {
        fill: #fff;
      }

      .st1 {
        fill: none;
      }

      .st2 {
        clip-path: url(#clippath-1);
      }

      .st3 {
        clip-path: url(#clippath-2);
      }

      .st4 {
        clip-path: url(#clippath);
      }
    </style>
    <clipPath id="clippath">
      <path class="st1" d="M55.38,72.1l102.56,142.45,114.87-49.43c-23.28-2.73-40.94-15.77-40.94-31.46,0-6.39,2.95-12.34,7.99-17.34-.03-.03-.05-.05-.08-.1l-52.37-22.82,24.63-11.02c-15.54-19.08-32.26-41.1-40.1-50.56l-116.57,40.29h0Z"/>
    </clipPath>
    <clipPath id="clippath-1">
      <ellipse class="st1" cx="277.82" cy="132.65" rx="30.53" ry="21.72"/>
    </clipPath>
    <clipPath id="clippath-2">
      <path class="st1" d="M11.28,58.12l136.32,192.49,5.25-2.34c14.29-6.35,139.69-62.17,144.86-64.9,3.93-2.08,6.14-1.51,8.18,2.08,4.02,7.11,2.79,20.61-3.9,25.02l-162.5,74.06L17.25,111.75H0l134.79,190.32,173.39-79.03.72-.38c14.3-8.64,16.66-30.81,9.13-44.08-5.76-10.18-16.31-13.15-26.89-7.56-3.97,2.06-83.23,37.43-138.76,62.15L33.73,65.67,176.11,18.58l51.74,66.64-16.15,7.82,48.32,17.63-6.05-37.9-13.22,6.24L180.84,2.39,11.27,58.13h.01Z"/>
    </clipPath>
  </defs>
  <g>
    <path class="st0" d="M55.38,72.1l102.56,142.45,114.87-49.43c-23.28-2.73-40.94-15.77-40.94-31.46,0-6.39,2.95-12.34,7.99-17.34-.03-.03-.05-.05-.08-.1l-52.37-22.82,24.63-11.02c-15.54-19.08-32.26-41.1-40.1-50.56l-116.57,40.29h0Z"/>
    <g class="st4">
      <rect class="st0" x="28.39" y="-17.73" width="271.42" height="281.77" transform="translate(-28.34 194.31) rotate(-57.18)"/>
    </g>
  </g>
  <g>
    <path class="st0" d="M247.29,132.65c0,11.99,13.67,21.72,30.53,21.72s30.53-9.72,30.53-21.72-13.67-21.72-30.53-21.72-30.53,9.72-30.53,21.72"/>
    <g class="st2">
      <rect class="st0" x="241.57" y="95.32" width="72.52" height="74.7" transform="translate(-2.37 260.27) rotate(-50.01)"/>
    </g>
  </g>
  <g>
    <path class="st0" d="M11.28,58.12l136.32,192.49,5.25-2.34c14.29-6.35,139.69-62.17,144.86-64.9,3.93-2.08,6.14-1.51,8.18,2.08,4.02,7.11,2.79,20.61-3.9,25.02l-162.5,74.06L17.25,111.75H0l134.79,190.32,173.39-79.03.72-.38c14.3-8.64,16.66-30.81,9.13-44.08-5.76-10.18-16.31-13.15-26.89-7.56-3.97,2.06-83.23,37.43-138.76,62.15L33.73,65.67,176.11,18.58l51.74,66.64-16.15,7.82,48.32,17.63-6.05-37.9-13.22,6.24L180.84,2.39,11.27,58.13h.01Z"/>
    <g class="st3">
      <rect class="st0" x="-33.77" y="-52.04" width="393.1" height="408.54" transform="translate(-36.01 252.99) rotate(-69.96)"/>
    </g>
  </g>
  <path class="st0" d="M430.32,7.86c-6.07-3.85-12.68-5.76-19.83-5.76h-46.76c-2.97,0-5.44.98-7.38,2.94-1.96,1.96-2.94,4.43-2.94,7.38v121.04c0,2.97.91,5.44,2.73,7.38,1.83,1.96,4.15,2.94,6.98,2.94s5.36-.98,7.19-2.94,2.73-4.41,2.73-7.38v-43.31h37.44c7.16,0,13.77-1.99,19.83-5.97,6.08-3.98,10.93-9.31,14.57-15.98,3.64-6.68,5.47-14.07,5.47-22.16s-1.83-15.85-5.47-22.47c-3.64-6.61-8.5-11.84-14.57-15.69M427.19,58.16c-1.83,3.78-4.19,6.82-7.09,9.11-2.9,2.29-6.11,3.44-9.61,3.44h-37.44V21.53h37.44c3.51,0,6.71,1.12,9.61,3.34,2.89,2.23,5.26,5.17,7.09,8.81,1.83,3.64,2.73,7.76,2.73,12.35,0,4.32-.91,8.36-2.73,12.15"/>
  <path class="st0" d="M598.11,1.89c-3.37,0-6.14,1.55-8.3,4.65l-48.15,71.57L494.68,6.55c-.95-1.35-2.29-2.46-4.05-3.34-1.75-.88-3.44-1.32-5.06-1.32-2.84,0-5.3,1.04-7.38,3.14-2.1,2.09-3.14,4.49-3.14,7.19v121.23c0,2.97.91,5.44,2.73,7.38,1.83,1.96,4.15,2.94,6.98,2.94s5.36-.98,7.19-2.94,2.73-4.41,2.73-7.38V40.83l38.05,59.23c.95,1.22,2.19,2.26,3.74,3.14s3.07,1.32,4.56,1.32,3-.43,4.56-1.32c1.54-.88,2.79-1.92,3.74-3.14l38.05-57.95v91.34c0,2.97.98,5.44,2.94,7.38,1.96,1.96,4.48,2.94,7.59,2.94s5.63-.98,7.59-2.94,2.94-4.41,2.94-7.38V12.22c0-2.97-1.04-5.43-3.13-7.38s-4.49-2.94-7.19-2.94"/>
  <path class="st0" d="M699.71,8.17c-.82-2.15-2.09-3.85-3.85-5.06-1.75-1.22-3.71-1.83-5.87-1.83-2.16-.13-4.15.4-5.97,1.62-1.83,1.22-3.14,2.97-3.95,5.26l-51.41,124.28c-.4,1.22-.61,2.29-.61,3.24,0,2.57.74,4.69,2.23,6.37,1.48,1.69,3.77,2.53,6.88,2.53,2.02,0,3.85-.61,5.46-1.82,1.62-1.22,2.84-2.9,3.64-5.06l11.99-28.74h62.08l12.15,28.74c.82,2.02,2.06,3.68,3.75,4.96,1.69,1.28,3.54,1.92,5.57,1.92,2.42,0,4.62-.91,6.58-2.73,1.96-1.83,2.94-4.22,2.94-7.19,0-1.35-.27-2.7-.82-4.05l-50.8-122.45v-.02ZM666.39,89.54l22.73-54.46,23.02,54.46h-45.75Z"/>
  <path class="st0" d="M880.26,130.62l-50.8-122.45c-.82-2.15-2.09-3.85-3.85-5.06-1.75-1.22-3.71-1.83-5.87-1.83-2.16-.13-4.15.4-5.97,1.62-1.83,1.22-3.14,2.97-3.95,5.26l-51.41,124.28c-.4,1.22-.61,2.29-.61,3.24,0,2.57.74,4.69,2.23,6.37,1.48,1.69,3.77,2.53,6.88,2.53,2.02,0,3.85-.61,5.46-1.82,1.62-1.22,2.84-2.9,3.64-5.06l11.99-28.74h62.08l12.15,28.74c.82,2.02,2.06,3.68,3.75,4.96,1.69,1.28,3.54,1.92,5.57,1.92,2.42,0,4.62-.91,6.58-2.73,1.96-1.83,2.94-4.22,2.94-7.19,0-1.35-.27-2.7-.82-4.05M796.13,89.54l22.73-54.46,23.02,54.46h-45.75Z"/>
  <path class="st0" d="M377.72,227.67h-21.05v-15.63h19.28c.43,0,.76-.12,1-.36s.36-.55.36-.95v-.88c0-.43-.12-.76-.36-1s-.57-.36-1-.36h-19.28v-15.04h20.57c.43,0,.76-.12,1-.36s.36-.55.36-.95v-.88c0-.43-.12-.76-.36-1s-.57-.36-1-.36h-23c-.39,0-.71.12-.95.36s-.36.57-.36,1v38.61c0,.39.12.71.36.95s.55.36.95.36h23.47c.43,0,.76-.12,1-.36s.36-.55.36-.95v-.88c0-.43-.12-.76-.36-1s-.57-.36-1-.36"/>
  <path class="st0" d="M417.07,197.16c-1-2.38-2.69-4.18-5.05-5.39s-5.62-1.83-9.79-1.83h-12.56c-.39,0-.71.12-.95.36s-.36.57-.36,1v38.62c0,.39.12.71.36.95s.55.36.95.36h12.85c4.05,0,7.23-.58,9.56-1.74,2.32-1.16,3.97-2.91,4.95-5.27s1.51-5.34,1.59-8.96c.04-1.77.05-3.33.05-4.69s-.02-2.91-.05-4.69c-.04-3.41-.55-6.32-1.57-8.7M414.99,211.84c0,.88-.02,1.91-.05,3.1-.04,3.07-.47,5.53-1.27,7.41-.8,1.87-2.12,3.22-3.95,4.07s-4.32,1.27-7.46,1.27h-10.15v-34.2h9.85c4.72,0,8.04,1.03,9.96,3.1s2.93,5.26,3.01,9.58c.03,1.17.05,2.2.05,3.07v2.62h0Z"/>
  <path class="st0" d="M457.56,189.94h-1.07c-.39,0-.72.12-.97.36-.26.24-.38.57-.38,1v24.12c0,4.4-1.03,7.64-3.1,9.73s-4.85,3.12-8.34,3.12-6.34-1.04-8.41-3.12c-2.07-2.09-3.1-5.33-3.1-9.73v-24.12c0-.43-.12-.76-.36-1s-.58-.36-1-.36h-1.07c-.39,0-.71.12-.95.36s-.36.57-.36,1v23.93c0,3.82.61,6.94,1.83,9.37s2.96,4.24,5.22,5.43c2.26,1.17,4.98,1.77,8.17,1.77s5.96-.59,8.2-1.77c2.24-1.17,3.96-2.99,5.15-5.43,1.2-2.44,1.79-5.57,1.79-9.37v-23.93c0-.43-.12-.76-.36-1s-.55-.36-.95-.36"/>
  <path class="st0" d="M475.57,195.92c2.1-2.02,4.95-3.03,8.53-3.03,3.14,0,5.75.65,7.81,1.95,2.07,1.29,3.47,3.7,4.22,7.19.08.47.24.79.47.97.24.17.51.26.83.26h1.17c.36,0,.66-.11.91-.33.25-.22.36-.5.33-.86-.08-1.41-.42-2.86-1.03-4.34-.61-1.47-1.53-2.85-2.77-4.12-1.24-1.27-2.84-2.31-4.81-3.1-1.97-.78-4.34-1.17-7.13-1.17-3.58,0-6.49.69-8.75,2.07-2.26,1.37-3.94,3.27-5.03,5.69s-1.71,5.15-1.83,8.22c-.04,1.69-.05,3.46-.05,5.31s.02,3.58.05,5.19c.12,3.07.73,5.8,1.83,8.2,1.1,2.39,2.78,4.3,5.03,5.69,2.26,1.39,5.18,2.09,8.75,2.09,2.79,0,5.17-.39,7.13-1.17s3.57-1.82,4.81-3.1c1.24-1.27,2.16-2.65,2.77-4.13s.96-2.91,1.03-4.33c.04-.36-.07-.64-.33-.86s-.57-.33-.91-.33h-1.17c-.32,0-.59.09-.83.26s-.39.5-.47.97c-.75,3.5-2.15,5.89-4.22,7.19-2.07,1.29-4.66,1.95-7.81,1.95-3.58,0-6.42-1.01-8.53-3.03-2.1-2.02-3.23-5.25-3.39-9.7-.12-3.38-.12-6.68,0-9.91.15-4.44,1.28-7.68,3.39-9.7"/>
  <path class="st0" d="M525.36,191.12c-.15-.39-.36-.69-.62-.88s-.62-.29-1.09-.29h-2c-.47,0-.84.1-1.09.29s-.47.49-.62.88l-14.92,38.27c-.08.24-.12.46-.12.65,0,.32.12.59.36.83s.51.36.83.36h1.17c.39,0,.7-.11.91-.33s.35-.4.38-.55l3.65-9.44h20.88l3.65,9.44c.08.15.22.35.41.55.2.22.49.33.88.33h1.17c.32,0,.59-.12.83-.36.24-.24.36-.51.36-.83,0-.2-.04-.41-.12-.65l-14.92-38.27ZM513.63,217.35l9.03-23.23,9.03,23.23h-18.05Z"/>
  <path class="st0" d="M572.23,189.94h-27c-.39,0-.71.12-.95.36s-.36.57-.36,1v.88c0,.39.12.71.36.95.24.24.55.36.95.36h11.68v36.44c0,.39.12.71.36.95s.55.36.95.36h1.07c.43,0,.76-.12,1-.36s.36-.55.36-.95v-36.44h11.61c.43,0,.76-.12,1-.36s.36-.55.36-.95v-.88c0-.43-.12-.76-.36-1-.24-.24-.57-.36-1-.36"/>
  <path class="st0" d="M583.67,189.94h-1.12c-.39,0-.71.12-.95.36s-.36.55-.36.95v38.68c0,.39.12.71.36.95s.55.36.95.36h1.12c.39,0,.71-.12.95-.36s.36-.55.36-.95v-38.68c0-.39-.12-.71-.36-.95-.24-.24-.55-.36-.95-.36"/>
  <path class="st0" d="M624.03,196.51c-1.32-2.41-3.12-4.22-5.43-5.39-2.29-1.17-4.98-1.77-8.05-1.77s-5.75.59-8.05,1.77c-2.29,1.17-4.1,2.98-5.39,5.39s-2,5.45-2.12,9.11c-.04,1.77-.05,3.41-.05,4.95s.02,3.19.05,4.95c.12,3.7.78,6.75,2,9.17,1.22,2.41,2.97,4.21,5.24,5.36,2.28,1.16,5.05,1.74,8.32,1.74s6.04-.58,8.31-1.74c2.28-1.16,4.03-2.95,5.27-5.36,1.24-2.41,1.89-5.47,1.98-9.17.08-1.77.12-3.41.12-4.95s-.04-3.19-.12-4.95c-.08-3.65-.77-6.69-2.09-9.11M622.41,215.23c-.16,4.6-1.33,7.92-3.51,9.96s-4.96,3.07-8.34,3.07-6.11-1.02-8.32-3.07c-2.2-2.04-3.38-5.36-3.53-9.96-.04-1.77-.05-3.32-.05-4.65s.02-2.89.05-4.65c.12-3.07.7-5.56,1.74-7.49,1.04-1.92,2.44-3.33,4.19-4.22,1.75-.88,3.72-1.33,5.93-1.33s4.23.45,5.98,1.33,3.14,2.29,4.19,4.22c1.04,1.92,1.6,4.43,1.69,7.49.08,1.77.12,3.32.12,4.65s-.04,2.89-.12,4.65"/>
  <path class="st0" d="M664.02,189.94h-1.07c-.39,0-.71.12-.95.36s-.36.57-.36,1v32.6l-21.76-33.25c-.04-.08-.15-.22-.36-.41-.2-.2-.49-.29-.88-.29h-1.24c-.39,0-.71.12-.95.36s-.36.57-.36,1v38.61c0,.39.12.71.36.95.24.24.55.36.95.36h1.07c.43,0,.77-.12,1-.36.24-.24.36-.55.36-.95v-32.55l21.69,33.13c.08.08.21.22.38.41s.46.29.86.29h1.29c.39,0,.71-.13.95-.38.24-.26.36-.58.36-.98v-38.56c0-.43-.12-.76-.36-1-.24-.24-.57-.36-1-.36"/>
  <path class="st0" d="M721.45,209.34h-12.61c-.39,0-.71.12-.95.36s-.36.57-.36,1v.83c0,.39.12.72.36.97.24.25.55.38.95.38h10.25v3.01c0,2.83-.53,5.15-1.59,6.98-1.07,1.83-2.51,3.19-4.36,4.07s-3.93,1.33-6.25,1.33c-3.5,0-6.34-.96-8.51-2.89-2.19-1.92-3.35-5.09-3.51-9.49-.12-3.53-.12-7.08,0-10.61.15-4.44,1.33-7.61,3.51-9.53,2.19-1.9,5.02-2.86,8.51-2.86,2.36,0,4.32.36,5.86,1.09,1.55.73,2.79,1.65,3.72,2.77s1.58,2.29,1.98,3.51c.15.43.32.74.47.91s.41.26.76.26h1.29c.39,0,.71-.11.95-.33.24-.22.34-.5.29-.86-.04-.83-.36-1.85-.95-3.07s-1.49-2.42-2.71-3.63c-1.22-1.2-2.79-2.2-4.72-3-1.92-.8-4.24-1.21-6.96-1.21-3.34,0-6.18.66-8.49,1.98-2.32,1.32-4.08,3.14-5.27,5.48s-1.86,5.07-1.98,8.17c-.04,1.77-.07,3.63-.07,5.6s.02,3.83.07,5.6c.12,3.07.77,5.77,1.98,8.13,1.2,2.36,2.95,4.2,5.25,5.51,2.29,1.32,5.13,1.98,8.51,1.98s6.26-.66,8.63-2c2.38-1.34,4.19-3.2,5.43-5.6,1.24-2.39,1.86-5.17,1.86-8.31v-5.19c0-.43-.12-.76-.36-1-.24-.24-.57-.36-1-.36"/>
  <path class="st0" d="M752.12,213.23c2.79-.66,4.97-1.95,6.55-3.83,1.58-1.88,2.36-4.4,2.36-7.55,0-4.01-1.23-6.99-3.69-8.96s-5.75-2.95-9.87-2.95h-13.73c-.39,0-.71.12-.95.36s-.36.57-.36,1v38.61c0,.39.12.71.36.95.24.24.55.36.95.36h1.07c.43,0,.76-.12,1-.36s.36-.55.36-.95v-16.16h12.15l9.37,15.85c.24.39.51.76.83,1.09.32.34.78.5,1.41.5h.71c.32,0,.59-.12.83-.36.24-.24.36-.51.36-.83,0-.2-.05-.41-.17-.65l-9.49-16.16-.02.02ZM747.16,210.22h-11.03v-16.75h11.03c3.41,0,5.96.7,7.63,2.09,1.67,1.39,2.51,3.49,2.51,6.29s-.84,4.88-2.51,6.27-4.22,2.09-7.63,2.09"/>
  <path class="st0" d="M798.13,196.51c-1.32-2.41-3.12-4.22-5.43-5.39-2.29-1.17-4.98-1.77-8.05-1.77s-5.75.59-8.05,1.77c-2.29,1.17-4.1,2.98-5.39,5.39s-2,5.45-2.12,9.11c-.04,1.77-.05,3.41-.05,4.95s.02,3.19.05,4.95c.12,3.7.78,6.75,2,9.17,1.22,2.41,2.97,4.21,5.24,5.36,2.28,1.16,5.05,1.74,8.32,1.74s6.04-.58,8.31-1.74c2.28-1.16,4.03-2.95,5.27-5.36,1.24-2.41,1.89-5.47,1.98-9.17.08-1.77.12-3.41.12-4.95s-.04-3.19-.12-4.95c-.08-3.65-.77-6.69-2.09-9.11M796.51,215.23c-.16,4.6-1.33,7.92-3.51,9.96s-4.96,3.07-8.34,3.07-6.11-1.02-8.32-3.07c-2.2-2.04-3.38-5.36-3.53-9.96-.04-1.77-.05-3.32-.05-4.65s.02-2.89.05-4.65c.12-3.07.7-5.56,1.74-7.49,1.04-1.92,2.44-3.33,4.19-4.22,1.75-.88,3.72-1.33,5.93-1.33s4.23.45,5.98,1.33,3.14,2.29,4.19,4.22c1.04,1.92,1.6,4.43,1.69,7.49.08,1.77.12,3.32.12,4.65s-.04,2.89-.12,4.65"/>
  <path class="st0" d="M838.97,189.94h-1.07c-.39,0-.72.12-.97.36-.26.24-.38.57-.38,1v24.12c0,4.4-1.03,7.64-3.1,9.73-2.07,2.09-4.85,3.12-8.34,3.12s-6.34-1.04-8.41-3.12c-2.07-2.09-3.1-5.33-3.1-9.73v-24.12c0-.43-.12-.76-.36-1-.24-.24-.58-.36-1-.36h-1.07c-.39,0-.71.12-.95.36s-.36.57-.36,1v23.93c0,3.82.61,6.94,1.83,9.37s2.96,4.24,5.22,5.43c2.26,1.17,4.98,1.77,8.17,1.77s5.96-.59,8.2-1.77c2.24-1.17,3.96-2.99,5.15-5.43s1.79-5.57,1.79-9.37v-23.93c0-.43-.12-.76-.36-1-.24-.24-.55-.36-.95-.36"/>
  <path class="st0" d="M879.03,195.42c-1.12-1.81-2.7-3.18-4.72-4.1-2.02-.92-4.41-1.38-7.17-1.38h-14.33c-.39,0-.71.12-.95.36s-.36.57-.36,1v38.62c0,.39.12.71.36.95.24.24.55.36.95.36h1.07c.43,0,.76-.12,1-.36s.36-.55.36-.95v-15.56h11.91c2.75,0,5.13-.46,7.17-1.38,2.02-.92,3.6-2.28,4.72-4.1,1.12-1.81,1.67-4.05,1.67-6.72s-.57-4.92-1.67-6.72M874.48,208.56c-1.67,1.49-4.22,2.24-7.63,2.24h-11.61v-17.33h11.61c3.41,0,5.96.75,7.63,2.24,1.67,1.49,2.51,3.63,2.51,6.43s-.84,4.94-2.51,6.43"/>
</svg>